<?xml version="1.0" encoding="utf-8"?>
<!-- Generator: Adobe Illustrator 26.1.0, SVG Export Plug-In . SVG Version: 6.00 Build 0)  -->
<svg version="1.1" xmlns="http://www.w3.org/2000/svg" xmlns:xlink="http://www.w3.org/1999/xlink" x="0px" y="0px"
	 viewBox="0 0 1920 1080" style="enable-background:new 0 0 1920 1080;" xml:space="preserve">
<style type="text/css">
	.st0{fill:#FBECE4;stroke:#4D4D4D;stroke-miterlimit:10;}
	.st1{fill:#C2ECE4;stroke:#4D4D4D;stroke-miterlimit:10;}
	.st2{fill:#D6B7E4;stroke:#4D4D4D;stroke-miterlimit:10;}
	.st3{fill:#FBECB3;stroke:#4D4D4D;stroke-miterlimit:10;}
	.st4{fill:#BFAF4E;stroke:#4D4D4D;stroke-miterlimit:10;}
	.st5{fill:#FBFFFF;stroke:#4D4D4D;stroke-miterlimit:10;}
	.st6{fill:none;}
	.st7{font-family:'KozGoPr6N-Regular-83pv-RKSJ-H';}
	.st8{font-size:73px;}
</style>
<g id="landmarks-tttt">
	<polygon id="base" class="st0" points="230,147 316,941 1690,843 1573,86 1401,96 1420,235 1130,252 1109,111 1054,113 1075,258 
		760,277 741,124 692,128 709,277 409,294 304,144 	"/>
	<polygon id="area3" class="st1" points="266.5,324.5 298.5,630.5 741.5,602.5 709.5,298.5 	"/>
	<polygon id="area4" class="st2" points="301.5,653.5 328.5,919.5 941.5,881.5 915.5,615.5 	"/>
	<polygon id="area2" class="st3" points="762.3,298.5 790.5,596.5 941.5,587.2 971.5,874.5 1164.5,860.5 1094.5,281.5 	"/>
	<polygon id="area1" class="st4" points="1139.7,281.5 1173.5,547.5 1622.5,521.5 1562.5,102.5 1418.5,113.5 1436.5,262.5 	"/>
	<polygon id="office" class="st5" points="1173.5,577.5 1208.5,855.5 1666.5,824.5 1620.5,547.5 	"/>
</g>
<g id="nopointer-logos">
	<path class="st6" d="M1499.7,391.8h-286.8c-18.5,0-33.5-15-33.5-33.5v0c0-18.5,15-33.5,33.5-33.5h286.8c18.5,0,33.5,15,33.5,33.5v0
		C1533.1,376.8,1518.1,391.8,1499.7,391.8z"/>
	<text id="AREA1" transform="matrix(1 0 0 1 1199.7891 389.1309)" class="st7 st8">AREA1</text>
	<rect x="1729.4" y="490" class="st6" width="3.2" height="0"/>
	<path class="st6" d="M1109,394.7H822.3c-18.5,0-33.5-15-33.5-33.5v0c0-18.5,15-33.5,33.5-33.5H1109c18.5,0,33.5,15,33.5,33.5v0
		C1142.5,379.8,1127.5,394.7,1109,394.7z"/>
	<text id="AREA2" transform="matrix(1 0 0 1 809.1526 392.0754)" class="st7 st8">AREA2</text>
	<rect x="1073.1" y="569.6" class="st6" width="0" height="3.2"/>
	<path class="st6" d="M617,402.7H330.3c-18.5,0-33.5-15-33.5-33.5v0c0-18.5,15-33.5,33.5-33.5h197.8H559h58
		c18.5,0,33.5,15,33.5,33.5v0C650.5,387.8,635.5,402.7,617,402.7z"/>
	
		<text id="AREA2_00000003802253554132425730000009060851632202657960_" transform="matrix(1 0 0 1 317.1526 400.0754)" class="st7 st8">AREA3</text>
	<rect x="662.1" y="786.3" class="st6" width="0" height="3.2"/>
	<rect x="1554.2" y="-421.3" class="st6" width="3.2" height="0"/>
	<path class="st6" d="M627,749.7H340.3c-18.5,0-33.5-15-33.5-33.5v0c0-18.5,15-33.5,33.5-33.5h197.8H569h58
		c18.5,0,33.5,15,33.5,33.5v0C660.5,734.8,645.5,749.7,627,749.7z"/>
	
		<text id="AREA2_00000132050680584235433280000012066965425965572768_" transform="matrix(1 0 0 1 327.1526 747.0754)" class="st7 st8">AREA4</text>
	<path class="st6" d="M1524,648.7h-286.8c-18.5,0-33.5-15-33.5-33.5v0c0-18.5,15-33.5,33.5-33.5h197.8h30.9h58
		c18.5,0,33.5,15,33.5,33.5v0C1557.5,633.8,1542.5,648.7,1524,648.7z"/>
	
		<text id="AREA2_00000015317064030950819100000004594512740597537171_" transform="matrix(1 0 0 1 1224.1526 646.0754)" class="st7 st8">OFFICE</text>
	<rect x="1662.5" y="66.2" class="st6" width="0" height="3.2"/>
</g>
</svg>
